<svg id="Capa_1" enable-background="new 0 0 512.08 512.08" height="512" viewBox="0 0 512.08 512.08" width="512" xmlns="http://www.w3.org/2000/svg"><g><path d="m94.938 130.819c-3.839 0-7.678-1.464-10.606-4.394-5.857-5.857-5.858-15.354 0-21.213l17.261-17.262v-57.124h-49.937v63.338c0 3.979-1.58 7.794-4.394 10.606l-21.655 21.655c-5.857 5.857-15.355 5.857-21.213 0s-5.858-15.355 0-21.213l17.262-17.262v-72.124c0-8.284 6.716-15 15-15h79.937c8.284 0 15 6.716 15 15v78.338c0 3.979-1.58 7.793-4.394 10.606l-21.654 21.655c-2.93 2.929-6.768 4.394-10.607 4.394z" fill="#9ee2f8"/><g><g><path d="m244.829 118.233c-4.641-2.68-10.359-2.68-15 0l-112.136 64.742c-10.062 5.809-16.068 16.213-16.068 27.831 0 11.617 6.007 22.021 16.068 27.83l112.136 64.741c2.32 1.34 4.91 2.01 7.5 2.01s5.18-.67 7.5-2.01c4.641-2.68 7.5-7.631 7.5-12.99v-159.163c0-5.36-2.86-10.311-7.5-12.991z" fill="#ffb64c"/><path d="m327.938 28.646h-10c-76.34 0-138.446 62.106-138.446 138.445v117.413c0 60.299 23.637 117.144 66.557 160.064 42.921 42.92 99.766 66.557 160.064 66.557h43.478l-66.94-127.91 91.204-139.592v-69.061c-.001-80.458-65.459-145.916-145.917-145.916z" fill="#fdd691"/><path d="m393.838 212.188c-61.41 0-111.371 49.961-111.371 111.371v22.691c0 43.908 17.209 85.299 48.457 116.546 31.247 31.248 72.638 48.457 116.546 48.457h40.348c13.379 0 24.263-10.884 24.263-24.263v-156.56c-.001-65.198-53.044-118.242-118.243-118.242z" fill="#ffb64c"/><path d="m326.454 165.155c-8.284 0-15-6.716-15-15 0-7.653-6.226-13.879-13.879-13.879s-13.879 6.226-13.879 13.879c0 8.284-6.716 15-15 15s-15-6.716-15-15c0-24.195 19.684-43.879 43.879-43.879s43.879 19.684 43.879 43.879c0 8.284-6.716 15-15 15z" fill="#4a696f"/></g><g><g><path d="m473.854 174.563c0-61.323-38.027-113.925-91.736-135.481v173.72l10 51.117-.339 148.225-9.661 85.603v12.105c7.92.836 15.925 1.273 23.995 1.273h43.478l15.048-125.184 9.216-142.317v-69.061z" fill="#ffb64c"/></g><g><path d="m393.838 212.188c-3.958 0-7.867.211-11.719.616v284.936c20.391 8.853 42.529 13.513 65.351 13.513h40.348c13.379 0 24.263-10.884 24.263-24.263v-156.56c-.001-65.198-53.044-118.242-118.243-118.242z" fill="#ff9100"/></g></g></g></g></svg>