<svg class="logo" width="182" height="182" viewBox="0 0 182 182" fill="none" xmlns="http://www.w3.org/2000/svg">
  <circle cx="91" cy="91" r="91" fill="white"/>
  <path d="M34.928 135.788V93.3465L42.4906 87.3599L54.409 106.083C59.1531 113.535 62.7148 121.678 64.9673 130.22L66.2836 135.212C66.6612 136.644 65.5813 138.046 64.1008 138.046H37.1854C35.9387 138.046 34.928 137.035 34.928 135.788Z" fill="#F5927E"/>
  <path d="M146.95 135.788V93.3465L139.387 87.3599L127.469 106.083C122.724 113.535 119.163 121.678 116.91 130.22L115.594 135.212C115.216 136.644 116.296 138.046 117.777 138.046H144.692C145.939 138.046 146.95 137.035 146.95 135.788Z" fill="#F5927E"/>
  <path d="M66.2836 135.212L64.9673 130.22C62.7148 121.677 59.1531 113.535 54.409 106.083L42.4906 87.3599L37.4638 91.339L41.9494 98.3855C46.6935 105.838 50.2552 113.98 52.5077 122.523L53.824 127.515C54.2016 128.947 53.1217 130.348 51.6412 130.348H34.928V135.788C34.928 137.035 35.9387 138.045 37.1854 138.045H64.1008C65.5813 138.046 66.6612 136.644 66.2836 135.212Z" fill="#D95FA8"/>
  <path d="M139.387 87.3599L139.253 87.5709V128.091C139.253 129.338 138.242 130.348 136.995 130.348H116.876L115.594 135.212C115.216 136.644 116.296 138.045 117.777 138.045H144.692C145.939 138.045 146.95 137.035 146.95 135.788V93.3465L139.387 87.3599Z" fill="#D95FA8"/>
  <path d="M94.1537 149.446H87.7505C86.5056 149.446 85.4965 148.437 85.4965 147.192V121.555H96.4077V147.192C96.4077 148.437 95.3983 149.446 94.1537 149.446Z" fill="#DAE7EF"/>
  <path d="M91.7094 121.555V147.188C91.7094 148.435 90.6986 149.446 89.4519 149.446H94.1503C95.397 149.446 96.4077 148.435 96.4077 147.188V121.555H91.7094Z" fill="#C1D5E4"/>
  <path d="M96.6157 127.014H85.2888C83.2968 127.014 81.6823 125.399 81.6823 123.407V113.612H100.222V123.407C100.222 125.399 98.6074 127.014 96.6157 127.014Z" fill="#DAE7EF"/>
  <path d="M94.5152 113.612V123.401C94.5152 125.396 92.8981 127.014 90.9031 127.014H96.6099C98.6048 127.014 100.222 125.397 100.222 123.401V113.612H94.5152Z" fill="#C1D5E4"/>
  <path d="M97.8874 116.252H83.7165C77.741 116.252 72.897 111.408 72.897 105.433V72.8991C72.897 66.9236 77.741 62.0796 83.7165 62.0796H97.8874C103.863 62.0796 108.707 66.9236 108.707 72.8991V105.433C108.707 111.408 103.863 116.252 97.8874 116.252Z" fill="#DAE7EF"/>
  <path d="M100.617 62.4317C100.812 63.245 100.918 64.0927 100.918 64.9657V97.4662C100.918 103.451 96.0668 108.302 90.082 108.302H75.9443C74.9951 108.302 74.075 108.18 73.1975 107.95C74.3387 112.712 78.621 116.252 83.7326 116.252H97.8703C103.855 116.252 108.706 111.401 108.706 105.416V72.9158C108.707 67.8802 105.272 63.6478 100.617 62.4317Z" fill="#C1D5E4"/>
  <path d="M70.613 42.0498H37.1854C35.9387 42.0498 34.928 43.0605 34.928 44.3072V99.9631L38.9037 98.032C53.6728 90.8584 64.5236 77.5328 68.5564 61.6167L72.8015 44.8617C73.1628 43.4354 72.0847 42.0498 70.613 42.0498Z" fill="#F5927E"/>
  <path d="M111.265 42.0498H144.693C145.939 42.0498 146.95 43.0605 146.95 44.3072V99.9631L142.974 98.032C128.205 90.8584 117.354 77.5328 113.322 61.6167L109.077 44.8617C108.715 43.4354 109.793 42.0498 111.265 42.0498Z" fill="#F5927E"/>
  <path d="M70.613 42.0498H64.5683L60.8592 56.6888C57.1736 71.2357 47.7904 83.6152 34.928 91.1152V99.9635L38.9037 98.0324C53.6728 90.8589 64.5236 77.5333 68.5564 61.6171L72.8015 44.8622C73.1628 43.4354 72.0847 42.0498 70.613 42.0498Z" fill="#D95FA8"/>
  <path d="M144.692 42.0498H139.253V83.7081C139.253 85.7512 137.115 87.0894 135.277 86.1968C128.241 82.7792 122.097 77.9629 117.153 72.1377C122.555 83.3326 131.6 92.5075 142.974 98.032L146.95 99.9631V44.3075C146.95 43.0605 145.939 42.0498 144.692 42.0498Z" fill="#D95FA8"/>
  <path d="M97.8706 60.3863H83.7328C76.8241 60.3863 71.2036 66.0068 71.2036 72.9155V105.416C71.2036 111.021 74.9034 115.778 79.9891 117.374V123.401C79.9891 125.809 81.6018 127.846 83.8034 128.492V147.188C83.8034 149.367 85.5758 151.139 87.7541 151.139H94.1502C96.3286 151.139 98.1009 149.367 98.1009 147.188V128.492C100.302 127.846 101.915 125.809 101.915 123.401V117.272C106.844 115.585 110.4 110.909 110.4 105.416V72.9155C110.4 66.0068 104.779 60.3863 97.8706 60.3863ZM94.1502 147.753H87.7541C87.4428 147.753 87.1897 147.5 87.1897 147.188V128.707H94.7146V147.188C94.7146 147.5 94.4615 147.753 94.1502 147.753ZM107.014 77.991H96.3581C95.4231 77.991 94.6648 78.7491 94.6648 79.6843C94.6648 80.6193 95.4229 81.3775 96.3581 81.3775H107.014V85.6668H96.3581C95.4231 85.6668 94.6648 86.4248 94.6648 87.36C94.6648 88.295 95.4229 89.0533 96.3581 89.0533H107.014V93.3426H96.3581C95.4231 93.3426 94.6648 94.1006 94.6648 95.0358C94.6648 95.971 95.4229 96.7288 96.3581 96.7288H107.014V101.018H96.3581C95.4231 101.018 94.6648 101.776 94.6648 102.712C94.6648 103.647 95.4229 104.405 96.3581 104.405H107.014V105.417C107.014 110.458 102.912 114.56 97.8706 114.56H92.246C91.311 114.56 90.5527 115.318 90.5527 116.253C90.5527 117.188 91.3108 117.946 92.246 117.946H97.8706C98.0915 117.946 98.3108 117.94 98.529 117.929V123.402C98.529 124.46 97.6681 125.321 96.6101 125.321H85.2942C84.2362 125.321 83.3753 124.46 83.3753 123.402V117.937C83.4944 117.941 83.6129 117.946 83.7328 117.946C84.6678 117.946 85.4261 117.188 85.4261 116.253C85.4261 115.318 84.6681 114.56 83.7328 114.56C78.6914 114.56 74.5899 110.458 74.5899 105.417V104.405H85.2453C86.1803 104.405 86.9386 103.647 86.9386 102.712C86.9386 101.777 86.1805 101.018 85.2453 101.018H74.5899V96.7288H85.2453C86.1803 96.7288 86.9386 95.9708 86.9386 95.0358C86.9386 94.1008 86.1805 93.3426 85.2453 93.3426H74.5899V89.0533H85.2453C86.1803 89.0533 86.9386 88.2953 86.9386 87.36C86.9386 86.4251 86.1805 85.6668 85.2453 85.6668H74.5899V81.3775H85.2453C86.1803 81.3775 86.9386 80.6195 86.9386 79.6843C86.9386 78.7493 86.1805 77.991 85.2453 77.991H74.5899V72.9155C74.5899 68.6682 77.5012 65.0885 81.433 64.0658V68.2913C81.433 69.2263 82.1911 69.9846 83.1263 69.9846C84.0613 69.9846 84.8195 69.2265 84.8195 68.2913V63.7726H89.109V68.2913C89.109 69.2263 89.8671 69.9846 90.8023 69.9846C91.7375 69.9846 92.4955 69.2265 92.4955 68.2913V63.7726H96.7848V68.2913C96.7848 69.2263 97.5428 69.9846 98.478 69.9846C99.413 69.9846 100.171 69.2265 100.171 68.2913V64.0658C104.103 65.0883 107.014 68.6682 107.014 72.9155V77.991H107.014Z" fill="black"/>
  <path d="M68.8591 53.5266C68.6294 54.4332 69.1781 55.3542 70.0846 55.5837C70.991 55.8131 71.912 55.2647 72.1417 54.3584L74.4424 45.2776C74.7438 44.0877 74.4844 42.8498 73.7306 41.881C72.9766 40.9122 71.8403 40.3566 70.6128 40.3566H37.1852C35.0069 40.3568 33.2345 42.1289 33.2345 44.3075V135.788C33.2345 137.966 35.0069 139.739 37.1852 139.739H64.1005C65.3355 139.739 66.4763 139.178 67.2301 138.199C67.9839 137.221 68.2356 135.975 67.9207 134.781L66.6044 129.789C64.3043 121.065 60.6816 112.784 55.8371 105.174L48.7481 94.0374C59.2969 86.2291 66.9143 74.9903 70.1973 62.0328C70.427 61.1264 69.8784 60.2054 68.9718 59.9757C68.065 59.7467 67.1444 60.2947 66.9147 61.2013C62.9958 76.6687 52.5167 89.538 38.1639 96.5094L36.621 97.2587V44.3075C36.621 43.9962 36.8741 43.7431 37.1854 43.7431H70.613C70.8531 43.7431 70.9951 43.8794 71.0584 43.9608C71.1217 44.042 71.2191 44.2133 71.1601 44.4461L68.8591 53.5266ZM39.9385 99.4068L42.3691 110.208C42.831 112.367 46.1848 111.595 45.6727 109.465L43.0383 97.7586C44.0342 97.1901 45.01 96.5942 45.9648 95.9711L52.9803 106.992C57.6368 114.307 61.1189 122.267 63.3297 130.652L64.646 135.644C64.7076 135.878 64.6106 136.051 64.5473 136.133C64.484 136.215 64.3417 136.353 64.1001 136.353H37.1852C36.8739 136.353 36.6208 136.1 36.6208 135.788V101.023C36.6208 101.023 39.8396 99.4555 39.9385 99.4068Z" fill="black"/>
  <path d="M144.692 40.3567H111.265C110.037 40.3567 108.901 40.9123 108.147 41.8811C107.393 42.8499 107.133 44.0878 107.435 45.2777L111.68 62.0329C114.963 74.9902 122.581 86.2292 133.129 94.0375L126.04 105.174C124.08 108.254 122.295 111.489 120.737 114.791C119.774 116.759 122.879 118.242 123.8 116.236C125.297 113.063 127.012 109.953 128.897 106.992L135.912 95.9712C136.789 96.5435 137.684 97.0931 138.596 97.6192L135.93 109.465C135.418 111.596 138.772 112.366 139.233 110.208L141.692 99.2827C141.873 99.3731 145.256 101.023 145.256 101.023V135.788C145.256 136.099 145.003 136.353 144.692 136.353H117.777C117.535 136.353 117.393 136.215 117.33 136.133C117.267 136.051 117.17 135.878 117.231 135.644L118.548 130.652C119.185 128.235 119.94 125.818 120.791 123.468C121.109 122.589 120.655 121.618 119.776 121.3C118.897 120.981 117.926 121.436 117.607 122.315C116.722 124.759 115.937 127.274 115.273 129.788L113.957 134.781C113.642 135.975 113.894 137.221 114.648 138.199C115.401 139.178 116.542 139.739 117.777 139.739H144.693C146.871 139.739 148.643 137.966 148.643 135.788V44.3074C148.643 42.1288 146.87 40.3567 144.692 40.3567ZM143.714 96.5093C129.361 89.5377 118.881 76.6683 114.963 61.2011L110.717 44.446C110.658 44.2134 110.756 44.0421 110.819 43.9609C110.882 43.8795 111.024 43.7432 111.265 43.7432H144.692C145.003 43.7432 145.257 43.9963 145.257 44.3076V97.2056V97.259L143.714 96.5093Z" fill="black"/>
</svg>
