<svg width="90" height="136" viewBox="0 0 90 136" fill="none" xmlns="http://www.w3.org/2000/svg">
<path d="M90 93.4911V136H45V68L90 93.4911Z" fill="#D95FA8"/>
<path fill-rule="evenodd" clip-rule="evenodd" d="M90 42.5089V93.491L45 68L90 42.5089Z" fill="#F5927E"/>
<path d="M0 0H45V68L0 42.5101V0Z" fill="#F5927E"/>
<path d="M90 42.5089L45 68V0H90V42.5089Z" fill="#D95FA8"/>
<path d="M0 93.4911V42.5089L45 68L0 93.4911Z" fill="#D95FA8"/>
<path d="M0 93.4911L45 68V136H0V93.4911Z" fill="#F5927E"/>
<path d="M70.4846 57.033C67.264 52.3696 62.8859 48.714 57.762 46.3939L48.7055 32.9804C47.8694 31.742 46.473 31 44.9786 31C43.4841 31 42.0877 31.7423 41.2516 32.9804L32.1951 46.3939C27.0712 48.714 22.6932 52.3699 19.4726 57.033C15.8922 62.2169 14 68.2977 14 74.6184C14 91.7001 27.8968 105.597 44.9786 105.597C62.0603 105.597 75.9574 91.7004 75.9574 74.6184C75.9574 68.2977 74.0649 62.2169 70.4846 57.033Z" fill="white"/>
<path d="M57.7619 46.394L48.7054 32.9804C47.8693 31.742 46.4729 31 44.9784 31C44.9781 31 44.9778 31 44.9775 31V105.598C44.9778 105.598 44.9781 105.598 44.9784 105.598C62.0602 105.598 75.9573 91.7008 75.9573 74.6187C75.9573 68.298 74.0648 62.2172 70.4844 57.0333C67.2639 52.3696 62.8858 48.714 57.7619 46.394Z" fill="#FFDF8E"/>
<path d="M44.9785 82.3321C42.4951 82.3321 40.4818 80.3187 40.4818 77.8353V73.1428C40.4818 70.6594 42.4951 68.646 44.9785 68.646C46.059 68.646 46.9382 67.7668 46.9382 66.6863C46.9382 65.6059 46.059 64.7266 44.9785 64.7266C44.1634 64.7266 43.4457 65.2171 43.1502 65.9761C42.249 68.2902 39.6433 69.436 37.328 68.5345C35.014 67.6334 33.8682 65.0267 34.7697 62.7124C36.4209 58.4725 40.4281 55.7331 44.9785 55.7331C51.018 55.7331 55.9318 60.6469 55.9318 66.6863C55.9318 71.1243 53.2784 74.9544 49.4753 76.6734V77.8353C49.4753 80.319 47.462 82.3321 44.9785 82.3321Z" fill="#FF91D3"/>
<path d="M44.9784 55.7331C44.9781 55.7331 44.9778 55.7331 44.9775 55.7331V64.7266C44.9778 64.7266 44.9781 64.7266 44.9784 64.7266C46.0589 64.7266 46.9381 65.6059 46.9381 66.6863C46.9381 67.7668 46.0589 68.646 44.9784 68.646C44.9781 68.646 44.9778 68.646 44.9775 68.646V82.3321C44.9778 82.3321 44.9781 82.3321 44.9784 82.3321C47.4619 82.3321 49.4752 80.3187 49.4752 77.8353V76.6734C53.2786 74.9544 55.9317 71.124 55.9317 66.6863C55.9317 60.6469 51.0179 55.7331 44.9784 55.7331Z" fill="#D95FA8"/>
<path d="M44.9785 93.0396C47.3306 93.0396 49.5841 90.9714 49.4753 88.5428C49.3662 86.1064 47.4994 84.046 44.9785 84.046C42.6264 84.046 40.3729 86.1142 40.4818 88.5428C40.5909 90.9791 42.4576 93.0396 44.9785 93.0396Z" fill="#FF91D3"/>
<path d="M44.9784 84.046C44.9781 84.046 44.9778 84.046 44.9775 84.046V93.0396C44.9778 93.0396 44.9781 93.0396 44.9784 93.0396C47.3306 93.0396 49.584 90.9714 49.4752 88.5428C49.3661 86.1064 47.4993 84.046 44.9784 84.046Z" fill="#D95FA8"/>
</svg>
